<mxfile host="app.diagrams.net" modified="2023-09-12T19:39:37.956Z" agent="Mozilla/5.0 (Windows NT 10.0; Win64; x64) AppleWebKit/537.36 (KHTML, like Gecko) Chrome/116.0.0.0 Safari/537.36" etag="_fIVY_KXm42QqYKM64Cx" version="21.7.4" type="device">
  <diagram name="Página-1" id="c6eg_ihHTdRDgdlMvcKO">
    <mxGraphModel dx="880" dy="470" grid="1" gridSize="10" guides="1" tooltips="1" connect="1" arrows="1" fold="1" page="1" pageScale="1" pageWidth="827" pageHeight="1169" math="0" shadow="0">
      <root>
        <mxCell id="0" />
        <mxCell id="1" parent="0" />
        <mxCell id="5qiyR1nMqb2ISzrdb36W-1" value="leitor" style="shape=umlActor;verticalLabelPosition=bottom;verticalAlign=top;html=1;" vertex="1" parent="1">
          <mxGeometry x="80" y="120" width="30" height="60" as="geometry" />
        </mxCell>
        <mxCell id="5qiyR1nMqb2ISzrdb36W-2" value="Bibliotecário&lt;br&gt;" style="shape=umlActor;verticalLabelPosition=bottom;verticalAlign=top;html=1;" vertex="1" parent="1">
          <mxGeometry x="414" y="160" width="30" height="60" as="geometry" />
        </mxCell>
        <mxCell id="5qiyR1nMqb2ISzrdb36W-4" value="emprestimo" style="ellipse;whiteSpace=wrap;html=1;fillColor=#d5e8d4;strokeColor=#82b366;" vertex="1" parent="1">
          <mxGeometry x="220" y="40" width="80" height="50" as="geometry" />
        </mxCell>
        <mxCell id="5qiyR1nMqb2ISzrdb36W-6" value="Leitores registrados" style="ellipse;whiteSpace=wrap;html=1;fillColor=#dae8fc;strokeColor=#6c8ebf;" vertex="1" parent="1">
          <mxGeometry x="610" y="240" width="110" height="60" as="geometry" />
        </mxCell>
        <mxCell id="5qiyR1nMqb2ISzrdb36W-7" value="Livros disponiveis" style="ellipse;whiteSpace=wrap;html=1;fillColor=#dae8fc;strokeColor=#6c8ebf;" vertex="1" parent="1">
          <mxGeometry x="630" y="150" width="110" height="60" as="geometry" />
        </mxCell>
        <mxCell id="5qiyR1nMqb2ISzrdb36W-8" value="Livros emprestados" style="ellipse;whiteSpace=wrap;html=1;fillColor=#dae8fc;strokeColor=#6c8ebf;" vertex="1" parent="1">
          <mxGeometry x="620" y="60" width="110" height="50" as="geometry" />
        </mxCell>
        <mxCell id="5qiyR1nMqb2ISzrdb36W-9" value="devolução" style="ellipse;whiteSpace=wrap;html=1;fillColor=#d5e8d4;strokeColor=#82b366;" vertex="1" parent="1">
          <mxGeometry x="220" y="260" width="80" height="50" as="geometry" />
        </mxCell>
        <mxCell id="5qiyR1nMqb2ISzrdb36W-10" value="Histórico" style="ellipse;whiteSpace=wrap;html=1;fillColor=#dae8fc;strokeColor=#6c8ebf;" vertex="1" parent="1">
          <mxGeometry x="530" y="330" width="110" height="60" as="geometry" />
        </mxCell>
        <mxCell id="5qiyR1nMqb2ISzrdb36W-11" value="registrar de leitor" style="ellipse;whiteSpace=wrap;html=1;fillColor=#dae8fc;strokeColor=#6c8ebf;" vertex="1" parent="1">
          <mxGeometry x="505" y="10" width="115" height="60" as="geometry" />
        </mxCell>
        <mxCell id="5qiyR1nMqb2ISzrdb36W-47" value="" style="endArrow=none;html=1;rounded=0;entryX=1;entryY=0.3333333333333333;entryDx=0;entryDy=0;entryPerimeter=0;" edge="1" parent="1" source="5qiyR1nMqb2ISzrdb36W-6" target="5qiyR1nMqb2ISzrdb36W-2">
          <mxGeometry width="50" height="50" relative="1" as="geometry">
            <mxPoint x="390" y="210" as="sourcePoint" />
            <mxPoint x="440" y="160" as="targetPoint" />
          </mxGeometry>
        </mxCell>
        <mxCell id="5qiyR1nMqb2ISzrdb36W-48" value="" style="endArrow=none;html=1;rounded=0;exitX=1;exitY=0.3333333333333333;exitDx=0;exitDy=0;exitPerimeter=0;" edge="1" parent="1" source="5qiyR1nMqb2ISzrdb36W-2">
          <mxGeometry width="50" height="50" relative="1" as="geometry">
            <mxPoint x="500" y="120" as="sourcePoint" />
            <mxPoint x="550" y="70" as="targetPoint" />
          </mxGeometry>
        </mxCell>
        <mxCell id="5qiyR1nMqb2ISzrdb36W-49" value="" style="endArrow=none;html=1;rounded=0;exitX=1;exitY=0.3333333333333333;exitDx=0;exitDy=0;exitPerimeter=0;" edge="1" parent="1" source="5qiyR1nMqb2ISzrdb36W-2">
          <mxGeometry width="50" height="50" relative="1" as="geometry">
            <mxPoint x="570" y="140" as="sourcePoint" />
            <mxPoint x="620" y="90" as="targetPoint" />
          </mxGeometry>
        </mxCell>
        <mxCell id="5qiyR1nMqb2ISzrdb36W-50" value="" style="endArrow=none;html=1;rounded=0;entryX=0;entryY=0.5;entryDx=0;entryDy=0;exitX=1;exitY=0.3333333333333333;exitDx=0;exitDy=0;exitPerimeter=0;" edge="1" parent="1" source="5qiyR1nMqb2ISzrdb36W-2" target="5qiyR1nMqb2ISzrdb36W-7">
          <mxGeometry width="50" height="50" relative="1" as="geometry">
            <mxPoint x="537.5" y="200" as="sourcePoint" />
            <mxPoint x="587.5" y="150" as="targetPoint" />
          </mxGeometry>
        </mxCell>
        <mxCell id="5qiyR1nMqb2ISzrdb36W-51" value="" style="endArrow=none;html=1;rounded=0;exitX=1;exitY=0.3333333333333333;exitDx=0;exitDy=0;exitPerimeter=0;" edge="1" parent="1" source="5qiyR1nMqb2ISzrdb36W-2" target="5qiyR1nMqb2ISzrdb36W-10">
          <mxGeometry width="50" height="50" relative="1" as="geometry">
            <mxPoint x="470" y="320" as="sourcePoint" />
            <mxPoint x="520" y="270" as="targetPoint" />
          </mxGeometry>
        </mxCell>
        <mxCell id="5qiyR1nMqb2ISzrdb36W-53" value="" style="endArrow=none;html=1;rounded=0;entryX=0;entryY=0.3333333333333333;entryDx=0;entryDy=0;entryPerimeter=0;exitX=1;exitY=1;exitDx=0;exitDy=0;" edge="1" parent="1" source="5qiyR1nMqb2ISzrdb36W-4" target="5qiyR1nMqb2ISzrdb36W-2">
          <mxGeometry width="50" height="50" relative="1" as="geometry">
            <mxPoint x="300" y="150" as="sourcePoint" />
            <mxPoint x="350" y="100" as="targetPoint" />
          </mxGeometry>
        </mxCell>
        <mxCell id="5qiyR1nMqb2ISzrdb36W-54" value="" style="endArrow=none;html=1;rounded=0;exitX=0.65;exitY=0;exitDx=0;exitDy=0;exitPerimeter=0;entryX=0;entryY=0.3333333333333333;entryDx=0;entryDy=0;entryPerimeter=0;" edge="1" parent="1" source="5qiyR1nMqb2ISzrdb36W-9" target="5qiyR1nMqb2ISzrdb36W-2">
          <mxGeometry width="50" height="50" relative="1" as="geometry">
            <mxPoint x="280" y="260" as="sourcePoint" />
            <mxPoint x="330" y="210" as="targetPoint" />
          </mxGeometry>
        </mxCell>
        <mxCell id="5qiyR1nMqb2ISzrdb36W-55" value="" style="endArrow=none;html=1;rounded=0;entryX=1;entryY=0.3333333333333333;entryDx=0;entryDy=0;entryPerimeter=0;exitX=0;exitY=0;exitDx=0;exitDy=0;" edge="1" parent="1" source="5qiyR1nMqb2ISzrdb36W-9" target="5qiyR1nMqb2ISzrdb36W-1">
          <mxGeometry width="50" height="50" relative="1" as="geometry">
            <mxPoint x="235" y="215" as="sourcePoint" />
            <mxPoint x="285" y="165" as="targetPoint" />
          </mxGeometry>
        </mxCell>
        <mxCell id="5qiyR1nMqb2ISzrdb36W-57" value="" style="endArrow=none;html=1;rounded=0;entryX=0;entryY=1;entryDx=0;entryDy=0;exitX=1;exitY=0.3333333333333333;exitDx=0;exitDy=0;exitPerimeter=0;" edge="1" parent="1" source="5qiyR1nMqb2ISzrdb36W-1" target="5qiyR1nMqb2ISzrdb36W-4">
          <mxGeometry width="50" height="50" relative="1" as="geometry">
            <mxPoint x="190" y="130" as="sourcePoint" />
            <mxPoint x="240" y="80" as="targetPoint" />
          </mxGeometry>
        </mxCell>
      </root>
    </mxGraphModel>
  </diagram>
</mxfile>
